<svg width="80" height="80" viewBox="0 0 80 80" fill="none" xmlns="http://www.w3.org/2000/svg">
<path fill-rule="evenodd" clip-rule="evenodd" d="M51.2 55.812C50.8086 55.5338 50.4269 55.2413 50.0557 54.9348L46.5 52L44.005 49.5051C43.3359 48.8359 42.715 48.12 42.1472 47.3629L41.5 46.5L40.1 44.5L38.75 42.25L37.4 40L35.8 37.5L34 35.25L31.9 33L29.75 31.25C29.1949 30.8182 28.6098 30.4291 28 30.0853L28 80H51.2V55.812ZM56.8 58.5857V80L61.4 80C71.6725 80 80 71.6725 80 61.4V46L77.5 49.5L75.5 52L74.5475 52.9939C73.6513 53.9291 72.6664 54.775 71.6066 55.5197L69.5 57L67.0961 58.0684C65.7076 58.6855 64.2295 59.077 62.7176 59.2282C60.9221 59.4078 59.1089 59.2454 57.3739 58.7497L56.8 58.5857ZM22.4 28.1924L22.4 80L4.00001 80C1.79087 80 1.18818e-05 78.2091 1.09513e-05 76L0 50L2.5 44.5L4.5 40.5L6.5 36.5L8.49999 33.5C9.81762 31.853 11.477 30.5115 13.3636 29.5682L13.5 29.5L14.2188 29.1919C16.0538 28.4055 18.0294 28 20.0258 28C20.822 28 21.6159 28.0645 22.4 28.1924Z" fill="#409EFF"/>
<path d="M0 4C0 1.79086 1.79086 0 4 0H40H60C71.0457 0 80 8.95431 80 20V40V36.2L77 41.5L73.6 46.5L72 48.5L70.5 50L69.4939 50.8384C68.1702 51.9415 66.7094 52.8689 65.148 53.5976L64.5 53.9V53.9C62.3429 54.4883 60.0644 54.4624 57.9213 53.8253L57.5 53.7L56.1928 53.0651C54.7363 52.3576 53.3711 51.4759 52.1272 50.4394L51 49.5L48.2 46.8L46.3 44.7L44.8 42.6L43 39.9L42 38L40.8 36L38 32.2L35.8398 29.8238C34.6189 28.4808 33.221 27.3103 31.6844 26.3445L30.5 25.6L28 24.4V24.4C26.0185 23.5414 23.8903 23.0723 21.7315 23.0183L21 23H17.5V23C14.8624 23.3297 12.3227 24.2064 10.0433 25.574L10 25.6L8.14269 26.993C6.72058 28.0596 5.43848 29.3219 4.34712 30.7251V30.7251C3.58795 31.7012 2.91503 32.7532 2.34875 33.8524L1.5 35.5L0 38.5V26.4V11.2V4Z" fill="#70B6FF"/>
</svg>
